<svg width="37" height="37" viewBox="0 0 37 37" fill="none" xmlns="http://www.w3.org/2000/svg">
<path d="M30.35 15.9396L29.78 17.3496C29.6 17.8296 29.6 18.3396 29.78 18.8196L30.35 20.2296C30.68 21.0696 30.41 22.0296 29.66 22.5696L28.4 23.4396C27.98 23.7396 27.71 24.1896 27.59 24.6696L27.32 26.1696C27.14 27.0696 26.39 27.7296 25.49 27.7596L23.96 27.8196C23.45 27.8496 22.97 28.0596 22.61 28.4196L21.56 29.5296C20.93 30.1896 19.94 30.3396 19.16 29.8896L17.84 29.1096C17.39 28.8396 16.88 28.7796 16.37 28.8996L14.87 29.2596C14 29.4696 13.07 29.0496 12.65 28.2396L11.96 26.8596C11.72 26.4096 11.33 26.0496 10.85 25.8996L9.41 25.4196C8.53999 25.1196 7.99999 24.2796 8.08999 23.3796L8.23999 21.8496C8.29999 21.3396 8.14999 20.8296 7.81999 20.4396L6.86 19.2396C6.29 18.5196 6.29 17.5296 6.86 16.8096L7.81999 15.6096C8.14999 15.2196 8.29999 14.7096 8.23999 14.1996L8.08999 12.6696C7.99999 11.7696 8.53999 10.9296 9.41 10.6296L10.85 10.1496C11.33 9.99961 11.72 9.63961 11.96 9.18961L12.65 7.80961C13.07 6.99961 13.97 6.57961 14.87 6.78961L16.37 7.14961C16.85 7.26961 17.39 7.20961 17.84 6.93961L19.16 6.15961C19.94 5.70961 20.93 5.82961 21.56 6.51961L22.61 7.62961C22.97 7.98961 23.45 8.22961 23.96 8.22961L25.49 8.28961C26.39 8.31961 27.17 8.97961 27.32 9.87961L27.59 11.3796C27.68 11.8896 27.98 12.3396 28.4 12.6096L29.66 13.4796C30.41 14.1396 30.71 15.0996 30.35 15.9396Z" fill="#6563FF"/>
<g opacity="0.15">
<path d="M13.52 28.1496L12.83 26.7696C12.59 26.3196 12.2 25.9596 11.72 25.8096L10.28 25.3296C9.40999 25.0296 8.87 24.1896 8.96 23.2896L9.11 21.7596C9.17 21.2496 9.01999 20.7396 8.68999 20.3496L7.73 19.1496C7.16 18.4296 7.16 17.4396 7.73 16.7196L8.68999 15.5196C9.01999 15.1296 9.17 14.6196 9.11 14.1096L8.96 12.5796C8.87 11.6796 9.40999 10.8396 10.28 10.5396L11.72 10.0596C12.2 9.90961 12.59 9.54961 12.83 9.09961L13.52 7.71961C13.76 7.23961 14.18 6.90961 14.63 6.75961C13.82 6.63961 13.01 7.05961 12.65 7.80961L11.96 9.18961C11.72 9.63961 11.33 9.99961 10.85 10.1496L9.41 10.6296C8.54 10.9296 7.99999 11.7696 8.08999 12.6696L8.23999 14.1996C8.29999 14.7096 8.14999 15.2196 7.81999 15.6096L6.86 16.8096C6.29 17.5296 6.29 18.5196 6.86 19.2396L7.81999 20.4396C8.14999 20.8296 8.29999 21.3396 8.23999 21.8496L8.08999 23.3796C7.99999 24.2796 8.54 25.1196 9.41 25.4196L10.85 25.8996C11.33 26.0496 11.72 26.4096 11.96 26.8596L12.65 28.2396C13.07 29.0496 13.97 29.4696 14.87 29.2596L15.05 29.2296C14.39 29.1096 13.82 28.7496 13.52 28.1496Z" fill="#09002A"/>
<path d="M18.68 6.84961L20 6.06961C20.12 6.00961 20.24 5.94961 20.36 5.91961C19.94 5.85961 19.49 5.94961 19.13 6.15961L17.81 6.93961C17.69 6.99961 17.57 7.05961 17.45 7.08961C17.87 7.14961 18.29 7.08961 18.68 6.84961Z" fill="#09002A"/>
<path d="M24.8 27.6996C24.65 27.6996 24.5 27.7296 24.38 27.7596L25.46 27.6996C25.61 27.6996 25.73 27.6696 25.88 27.6396L24.8 27.6996Z" fill="#09002A"/>
<path d="M20 29.7696L18.68 28.9896C18.23 28.7196 17.72 28.6596 17.21 28.7796L17.03 28.8096C17.3 28.8396 17.54 28.9296 17.78 29.0496L19.1 29.8296C19.61 30.1296 20.18 30.1596 20.72 29.9796C20.48 29.9796 20.24 29.9196 20 29.7696Z" fill="#09002A"/>
</g>
<path d="M13.7 16.1796L17.45 20.4696L25.13 14.2896" fill="#6563FF"/>
<path d="M16.55 22.6896C16.13 22.6896 15.71 22.5096 15.41 22.1796L11.66 17.8896C11.12 17.2596 11.18 16.3296 11.78 15.7596C12.41 15.2196 13.34 15.2796 13.91 15.8796L16.73 19.0896L23.3 13.8096C23.93 13.2996 24.89 13.3896 25.4 14.0496C25.91 14.7096 25.82 15.6396 25.16 16.1496L17.48 22.3596C17.21 22.5696 16.88 22.6896 16.55 22.6896Z" fill="#FAFCFE"/>
</svg>
