<svg width="86" height="59" viewBox="0 0 86 59" fill="none" xmlns="http://www.w3.org/2000/svg">
<path d="M24.962 54.4315C24.8533 56.0086 24.0103 57.0963 22.4332 57.6945C20.9105 58.2927 18.1369 58.5918 14.1125 58.5918C10.0881 58.5918 6.71636 58.2383 3.99719 57.5313C1.3324 56.77 0 55.8182 0 54.6762C0 53.371 2.42007 45.0503 7.2602 29.7142C12.1003 14.3236 14.8739 5.45912 15.5809 3.12063C15.8528 2.41364 18.0281 1.84262 22.1069 1.40755C26.24 0.918097 30.6451 0.673371 35.3221 0.673371C40.0534 0.673371 42.6639 1.48912 43.1533 3.12063C53.4318 37.2735 58.571 54.6218 58.571 55.1656C58.571 55.7095 58.2447 56.2533 57.5921 56.7971C56.0694 57.9936 53.0511 58.5918 48.5373 58.5918C38.9114 58.5918 33.9897 57.4497 33.7722 55.1656L33.2011 49.8632H25.3699L24.962 54.4315ZM31.488 34.364L30.2644 19.6804H28.4698L27.083 34.364H31.488Z" fill="#F4C751"/>
<path d="M85.4322 56.634C85.4322 57.2322 83.7735 57.7217 80.4561 58.1023C77.1387 58.4286 73.7942 58.5918 70.4224 58.5918C67.105 58.5918 64.984 58.4558 64.0595 58.1839C63.135 57.8576 62.6727 57.341 62.6727 56.634V5.89419C62.6727 4.69775 64.2498 3.52851 67.4041 2.38645C70.5583 1.19002 74.0933 0.591797 78.0089 0.591797C81.4894 0.591797 83.7735 1.32597 84.8612 2.79433C85.2419 3.33816 85.4322 3.882 85.4322 4.42583V56.634Z" fill="#F4C751"/>
</svg>
