<svg width="51" height="59" viewBox="0 0 51 59" fill="none" xmlns="http://www.w3.org/2000/svg">
<path d="M50.8721 8.87492V14.0575C50.8721 18.6148 39.4986 22.3418 25.4971 22.3418C11.4955 22.3418 0.12207 18.6148 0.12207 14.0609V8.87492C0.12207 4.31648 11.4955 0.591797 25.4971 0.591797C39.4986 0.591797 50.8721 4.31648 50.8721 8.87492ZM50.8721 20.5293V32.1859C50.8721 36.7398 39.4986 40.4668 25.4971 40.4668C11.4955 40.4668 0.12207 36.7398 0.12207 32.1859V20.5293C5.57316 24.2812 15.551 26.037 25.4971 26.037C35.4432 26.037 45.4232 24.2789 50.8721 20.5293ZM50.8721 38.6543V50.3109C50.8721 54.8648 39.4986 58.5918 25.4971 58.5918C11.4955 58.5918 0.12207 54.8671 0.12207 50.3075V38.6543C5.57316 42.4073 15.551 44.1632 25.4971 44.1632C35.4432 44.1632 45.4232 42.4039 50.8721 38.6543Z" fill="#31D0AA"/>
</svg>
