<svg width="42" height="42" viewBox="0 0 42 42" fill="none" xmlns="http://www.w3.org/2000/svg">
<path d="M22.929 18.8795C24.0336 19.9841 24.0336 21.7749 22.929 22.8795C21.8245 23.9841 20.0336 23.9841 18.929 22.8795C17.8245 21.7749 17.8245 19.9841 18.929 18.8795C20.0336 17.7749 21.8245 17.7749 22.929 18.8795ZM18.809 10.9995C19.9799 9.82864 21.8782 9.82864 23.049 10.9995C24.2199 12.1703 26.1182 12.1703 27.289 10.9995L28.0477 10.2408C29.2193 9.06923 29.2193 7.16974 28.0477 5.99817L23.0504 1.00081C21.8788 -0.170765 19.9793 -0.170767 18.8077 1.00081L13.8104 5.99816C12.6388 7.16974 12.6388 9.06923 13.8104 10.2408L14.569 10.9995C15.7399 12.1703 17.6382 12.1703 18.809 10.9995ZM11.049 22.9995C9.8782 21.8286 9.8782 19.9303 11.049 18.7595C12.2199 17.5886 12.2199 15.6903 11.049 14.5195L10.2904 13.7608C9.11879 12.5892 7.2193 12.5892 6.04773 13.7608L1.05037 18.7582C-0.121204 19.9297 -0.121206 21.8292 1.05037 23.0008L6.04772 27.9982C7.2193 29.1697 9.11879 29.1697 10.2904 27.9982L11.049 27.2395C12.2199 26.0686 12.2199 24.1703 11.049 22.9995ZM30.809 18.7595C31.9799 19.9303 31.9799 21.8286 30.809 22.9995C29.6382 24.1703 29.6382 26.0686 30.809 27.2395L31.5677 27.9982C32.7393 29.1697 34.6388 29.1697 35.8104 27.9982L40.8077 23.0008C41.9793 21.8292 41.9793 19.9297 40.8077 18.7582L35.8104 13.7608C34.6388 12.5892 32.7393 12.5892 31.5677 13.7608L30.809 14.5195C29.6382 15.6903 29.6382 17.5886 30.809 18.7595ZM23.049 30.7595C21.8782 31.9303 19.9799 31.9303 18.809 30.7595C17.6382 29.5886 15.7399 29.5886 14.569 30.7595L13.8104 31.5182C12.6388 32.6897 12.6388 34.5892 13.8104 35.7608L18.8077 40.7582C19.9793 41.9297 21.8788 41.9297 23.0504 40.7582L28.0477 35.7608C29.2193 34.5892 29.2193 32.6897 28.0477 31.5182L27.289 30.7595C26.1182 29.5886 24.2199 29.5886 23.049 30.7595Z" fill="#09002A"/>
</svg>
