<svg width="17" height="23" viewBox="0 0 17 23" fill="none" xmlns="http://www.w3.org/2000/svg">
<path d="M16.6642 14.2127C16.6642 11.4922 15.2847 9.10018 13.1959 7.65519C12.1572 6.93664 11.3309 5.85139 11.3309 4.58835V3.54606C11.3309 2.0733 10.137 0.879395 8.66424 0.879395C7.19149 0.879395 5.99758 2.0733 5.99758 3.54606V4.58835C5.99758 5.85139 5.17131 6.93664 4.13258 7.65519C2.04375 9.10018 0.664245 11.4922 0.664245 14.2127C0.664245 18.6394 4.23758 22.2127 8.66424 22.2127C13.0909 22.2127 16.6642 18.6394 16.6642 14.2127ZM8.66424 16.8794C7.19758 16.8794 5.99758 15.6794 5.99758 14.2127C5.99758 12.7461 7.19758 11.5461 8.66424 11.5461C10.1309 11.5461 11.3309 12.7461 11.3309 14.2127C11.3309 15.6794 10.1309 16.8794 8.66424 16.8794Z" fill="#09002A"/>
</svg>
