<svg width="21" height="24" viewBox="0 0 21 24" fill="none" xmlns="http://www.w3.org/2000/svg">
<path d="M14.5167 23.3659C16.1058 22.7545 18.8412 21.1125 17.7966 17.1913C17.0761 14.4711 14.9673 13.2505 13.4682 11.3897C11.9697 9.53178 11.5799 9.0019 11.9984 7.57372C10.0263 9.19878 9.69327 10.4475 10.1652 12.4168C10.6371 14.389 10.1095 14.6106 9.41596 14.7777C8.72183 14.9419 8.38996 14.2208 8.47208 13.5548C7.39096 14.25 4.03171 15.9983 5.11396 19.8272C5.9189 21.909 7.80609 23.2686 10.0544 23.686C10.3975 23.7332 10.7789 23.7563 11.1603 23.7664C10.289 23.7816 9.31696 23.7608 8.4929 23.6438C5.19777 23.0346 2.43252 21.0411 1.2524 17.9901C-0.333291 12.3769 4.58746 9.81359 6.17427 8.79772C6.05221 9.77422 6.5399 10.8306 7.55746 10.5865C8.57502 10.3418 9.34733 10.0183 8.65602 7.12934C7.96471 4.24034 8.45296 2.40997 11.3408 0.0300293C10.73 2.12365 11.2992 2.89765 13.4963 5.62465C15.6929 8.3494 18.7838 10.1382 19.8413 14.1246C21.494 20.3188 16.6981 22.6442 14.5167 23.3659Z" fill="#09002A"/>
</svg>
