<svg width="49" height="47" viewBox="0 0 49 47" fill="none" xmlns="http://www.w3.org/2000/svg">
<path d="M44.2819 39.2167C43.2892 38.2271 43.1631 36.6945 43.6243 35.3709C43.9859 34.333 44.1844 33.2241 44.1844 32.0618C44.1844 26.3703 39.5901 21.7761 33.8987 21.7761C28.2073 21.7761 23.613 26.3703 23.613 32.0618C23.613 37.7532 28.2073 42.3475 33.8758 42.3475C35.031 42.3475 36.1409 42.1515 37.1753 41.7941C38.5053 41.3346 40.047 41.4558 41.042 42.4508L44.8486 46.2574C45.7441 47.1529 47.1961 47.1529 48.0917 46.2574C48.9882 45.3608 48.9871 43.9068 48.0891 43.0116L44.2819 39.2167ZM33.8987 37.7761C30.7444 37.7761 28.1844 35.216 28.1844 32.0618C28.1844 28.9075 30.7444 26.3475 33.8987 26.3475C37.053 26.3475 39.613 28.9075 39.613 32.0618C39.613 35.216 37.053 37.7761 33.8987 37.7761ZM31.1949 15.5261C32.0125 16.7525 31.1505 18.4582 29.7338 18.8654C29.4893 18.9357 29.2477 19.0126 29.0091 19.096C28.5787 19.2463 28.094 19.1016 27.8422 18.7216C27.458 18.1419 26.6021 18.1564 26.2378 18.7488L20.491 28.095C19.4248 29.8289 16.9782 30.0203 15.6554 28.4734L14.1105 26.6668C12.7936 25.1266 10.36 25.3083 9.28625 27.0269L4.44862 34.7697C3.74844 35.8904 2.24725 36.1867 1.17375 35.4162C0.193243 34.7124 -0.0720205 33.368 0.56766 32.3446L8.69444 19.3417C9.76757 17.6247 12.1985 17.442 13.5162 18.9793L15.0389 20.7558C16.3623 22.2998 18.8059 22.1076 19.8716 20.3757L24.4048 13.0094C25.5513 11.1462 28.2424 11.0973 29.4559 12.9176L31.1949 15.5261ZM39.8646 18.1195C39.3648 18.9081 38.3818 19.2049 37.4885 18.9334C36.1074 18.5136 35.2604 16.8688 36.0324 15.649L44.7085 1.94001C45.4148 0.824121 46.9171 0.537502 47.9846 1.31502C48.9583 2.02427 49.2141 3.36764 48.5693 4.38513L39.8646 18.1195Z" fill="#09002A"/>
</svg>
