<svg width="59" height="59" viewBox="0 0 59 59" fill="none" xmlns="http://www.w3.org/2000/svg">
<path fill-rule="evenodd" clip-rule="evenodd" d="M2.53873 5.26115C2.53873 3.92647 3.62072 2.84448 4.9554 2.84448H21.8721C23.2067 2.84448 24.2887 3.92647 24.2887 5.26115V19.7611H33.9554V5.26115C33.9554 3.92647 35.0373 2.84448 36.3721 2.84448H53.2887C54.6235 2.84448 55.7054 3.92647 55.7054 5.26115V22.1778C55.7054 23.5125 54.6235 24.5945 53.2887 24.5945H38.7887V34.2611H53.2887C54.6235 34.2611 55.7054 35.3431 55.7054 36.6778V53.5945C55.7054 54.9292 54.6235 56.0111 53.2887 56.0111H36.3721C35.0373 56.0111 33.9554 54.9292 33.9554 53.5945V39.0945H24.2887V53.5945C24.2887 54.9292 23.2067 56.0111 21.8721 56.0111H4.9554C3.62072 56.0111 2.53873 54.9292 2.53873 53.5945V36.6778C2.53873 35.3431 3.62072 34.2611 4.9554 34.2611H19.4554V24.5945H4.9554C3.62072 24.5945 2.53873 23.5125 2.53873 22.1778V5.26115Z" fill="#ED4B9E"/>
</svg>
