<svg width="58" height="45" viewBox="0 0 58 45" fill="none" xmlns="http://www.w3.org/2000/svg">
<path d="M15.0106 8.771C14.2718 8.15738 13.32 7.86131 12.3634 7.94755C11.4069 8.03379 10.5234 8.49531 9.90622 9.23119L0.844264 20.1055C0.298885 20.7564 0 21.5785 0 22.4276C0 23.2768 0.298885 24.0989 0.844264 24.7498L9.90622 35.6241C10.2102 35.9924 10.584 36.297 11.0062 36.5204C11.4283 36.7438 11.8904 36.8815 12.3659 36.9257C12.8415 36.9699 13.321 36.9196 13.7771 36.7778C14.2331 36.636 14.6567 36.4055 15.0233 36.0995C15.39 35.7935 15.6925 35.418 15.9136 34.9947C16.1346 34.5713 16.2698 34.1084 16.3114 33.6327C16.3529 33.1569 16.3001 32.6776 16.1558 32.2223C16.0115 31.7671 15.7786 31.3448 15.4706 30.9799L8.34161 22.4278L15.4708 13.8755C16.0864 13.1375 16.3838 12.1852 16.2975 11.228C16.2112 10.2708 15.7484 9.38703 15.0106 8.771Z" fill="#4B4DED"/>
<path d="M33.3327 0.749672C32.3911 0.571394 31.4172 0.76967 30.6202 1.30188C29.8233 1.83409 29.2669 2.65774 29.0708 3.59578L21.8212 39.8435C21.7272 40.3103 21.7263 40.791 21.8186 41.2582C21.9108 41.7253 22.0945 42.1696 22.3589 42.5656C22.6233 42.9616 22.9634 43.3014 23.3595 43.5656C23.7557 43.8298 24.2001 44.0132 24.6673 44.1052C24.9025 44.1536 25.1422 44.1773 25.3823 44.176C26.2195 44.1747 27.0304 43.8834 27.677 43.3517C28.3236 42.82 28.7661 42.0807 28.9292 41.2595L36.1788 5.01164C36.2728 4.54484 36.2738 4.06405 36.1815 3.59689C36.0893 3.12972 35.9056 2.68538 35.6412 2.28937C35.3768 1.89336 35.0367 1.55349 34.6405 1.28926C34.2444 1.02504 33.7999 0.841663 33.3327 0.749672V0.749672Z" fill="#4B4DED"/>
<path d="M57.1557 20.1055L48.0938 9.2312C47.7898 8.86288 47.416 8.55827 46.9938 8.33489C46.5717 8.11152 46.1096 7.97378 45.6341 7.9296C45.1585 7.88542 44.679 7.93567 44.2229 8.07746C43.7669 8.21925 43.3433 8.44978 42.9767 8.75581C42.61 9.06183 42.3075 9.43731 42.0864 9.86065C41.8654 10.284 41.7302 10.7469 41.6886 11.2226C41.647 11.6984 41.6999 12.1777 41.8442 12.633C41.9885 13.0882 42.2214 13.5105 42.5294 13.8754L49.6584 22.4278L42.5292 30.98C42.2212 31.345 41.9883 31.7672 41.844 32.2225C41.6998 32.6777 41.6469 33.157 41.6884 33.6328C41.73 34.1086 41.8652 34.5714 42.0863 34.9948C42.3073 35.4181 42.6099 35.7936 42.9765 36.0996C43.3432 36.4056 43.7667 36.6362 44.2227 36.778C44.6788 36.9198 45.1584 36.97 45.6339 36.9258C46.1094 36.8816 46.5715 36.7439 46.9937 36.5205C47.4158 36.2972 47.7896 35.9926 48.0936 35.6242L57.1557 24.7498C57.7011 24.0989 58 23.2768 58 22.4277C58 21.5785 57.7011 20.7564 57.1557 20.1055V20.1055Z" fill="#4B4DED"/>
</svg>
