<svg width="37" height="36" viewBox="0 0 37 36" fill="none" xmlns="http://www.w3.org/2000/svg">
<path d="M18.2443 34.5C27.357 34.5 34.7443 27.1127 34.7443 18C34.7443 8.8873 27.357 1.5 18.2443 1.5C9.13156 1.5 1.74426 8.8873 1.74426 18C1.74426 27.1127 9.13156 34.5 18.2443 34.5Z" fill="url(#paint0_linear_1_760)"/>
<path d="M25.3048 13.9394L19.3048 7.93942C19.0235 7.65822 18.642 7.50024 18.2443 7.50024C17.8465 7.50024 17.4651 7.65822 17.1838 7.93942L11.1838 13.9394C11.0405 14.0778 10.9262 14.2433 10.8476 14.4263C10.769 14.6093 10.7276 14.8062 10.7259 15.0053C10.7242 15.2045 10.7621 15.402 10.8375 15.5864C10.913 15.7707 11.0243 15.9382 11.1652 16.079C11.306 16.2199 11.4735 16.3312 11.6578 16.4067C11.8422 16.4821 12.0397 16.52 12.2389 16.5183C12.438 16.5166 12.6349 16.4752 12.8179 16.3966C13.0009 16.318 13.1664 16.2037 13.3048 16.0604L16.7443 12.6209V26.9999C16.7443 27.3977 16.9023 27.7793 17.1836 28.0606C17.4649 28.3419 17.8464 28.4999 18.2443 28.4999C18.6421 28.4999 19.0236 28.3419 19.3049 28.0606C19.5862 27.7793 19.7443 27.3977 19.7443 26.9999V12.6209L23.1838 16.0604C23.4667 16.3337 23.8456 16.4849 24.2389 16.4814C24.6322 16.478 25.0084 16.3203 25.2865 16.0422C25.5646 15.764 25.7224 15.3878 25.7258 14.9945C25.7292 14.6012 25.578 14.2223 25.3048 13.9394Z" fill="#FFC0FE"/>
<defs>
<linearGradient id="paint0_linear_1_760" x1="18.2443" y1="1.5" x2="18.2443" y2="34.341" gradientUnits="userSpaceOnUse">
<stop stop-color="#FF8AF7"/>
<stop offset="1" stop-color="#F72DF2"/>
</linearGradient>
</defs>
</svg>
